<?xml version="1.0" standalone="no"?>
<!DOCTYPE svg PUBLIC "-//W3C//DTD SVG 20010904//EN"
 "http://www.w3.org/TR/2001/REC-SVG-20010904/DTD/svg10.dtd">
<svg version="1.0" xmlns="http://www.w3.org/2000/svg"
 width="700.000000pt" height="700.000000pt" viewBox="0 0 700.000000 700.000000"
 preserveAspectRatio="xMidYMid meet">
<metadata>
Created by potrace 1.11, written by Peter Selinger 2001-2013
</metadata>
<g transform="translate(0.000000,700.000000) scale(0.100000,-0.100000)"
fill="#000000" stroke="none">
<path d="M1675 6976 c-95 -44 -140 -121 -133 -228 4 -54 11 -75 34 -105 37
-49 50 -60 104 -85 42 -20 62 -22 290 -23 l245 0 3 -824 2 -823 -60 56 c-33
30 -89 69 -123 84 -58 27 -75 33 -147 47 -51 11 -161 5 -217 -11 -181 -51
-331 -202 -377 -379 -18 -71 -14 -218 7 -285 44 -135 145 -253 269 -314 41
-21 94 -40 117 -43 49 -7 59 -18 37 -42 -9 -10 -16 -21 -16 -25 0 -4 -17 -33
-38 -64 -180 -268 -347 -666 -398 -952 -2 -14 -7 -36 -9 -50 -20 -102 -26
-338 -13 -451 14 -112 54 -172 148 -219 96 -49 234 -19 287 61 l27 42 -1 201
c-1 110 3 226 8 256 5 30 11 69 13 85 21 123 90 331 161 480 15 31 16 -33 19
-1140 0 -145 -8 -320 -18 -385 -3 -14 -7 -52 -10 -85 -3 -33 -8 -69 -10 -80
-2 -11 -7 -47 -10 -80 -4 -33 -9 -73 -12 -90 -2 -16 -6 -46 -8 -65 -7 -58 -17
-133 -21 -167 -23 -161 -39 -367 -39 -488 0 -102 26 -155 98 -200 44 -27 58
-30 125 -30 111 1 180 42 216 129 17 41 20 67 30 236 3 58 7 123 10 145 2 22
7 65 11 95 3 30 7 61 9 70 2 8 6 46 10 85 7 79 15 97 16 39 0 -21 2 -47 4 -56
2 -10 6 -64 10 -120 3 -57 8 -119 10 -138 2 -19 7 -89 10 -155 10 -185 13
-212 30 -252 37 -88 114 -136 220 -137 80 0 135 23 178 74 48 57 51 87 32 370
-13 205 -16 240 -21 300 -3 36 -7 88 -9 115 -2 28 -6 91 -10 140 -19 250 -29
503 -27 665 1 119 4 159 19 220 2 8 4 274 4 590 l1 575 34 -87 c35 -90 78
-243 89 -318 4 -25 8 -47 10 -50 1 -3 6 -32 9 -65 4 -33 11 -94 16 -135 12
-91 19 -167 25 -269 10 -156 25 -213 68 -260 63 -68 157 -95 261 -75 34 6 93
52 117 91 20 32 24 51 24 118 -1 80 -13 252 -20 290 -2 11 -7 52 -10 90 -9
105 -15 155 -26 210 -5 28 -11 68 -14 90 -2 22 -7 51 -10 65 -3 14 -8 39 -11
55 -33 187 -138 474 -222 610 -43 68 -96 149 -107 161 -5 6 -21 26 -35 44 -34
45 -165 177 -220 221 -25 20 -63 42 -85 49 -22 7 -49 17 -60 23 -73 40 -132
66 -147 67 -20 0 -24 20 -7 37 8 8 11 299 11 1020 l0 1008 438 0 438 0 229
-227 c125 -125 332 -330 460 -455 127 -125 445 -439 706 -696 l474 -469 0
-2237 c1 -1230 4 -2253 8 -2271 23 -107 123 -181 235 -176 99 5 182 68 210
159 10 33 12 493 11 2217 0 1196 -1 2725 -1 3398 l0 1222 -1967 0 -1968 0 -50
-24z m3521 -1048 c0 -335 -1 -608 -2 -608 -3 0 -1174 1172 -1196 1196 -16 19
-4 19 591 19 l607 0 0 -607z"/>
</g>
</svg>
