<svg xmlns="http://www.w3.org/2000/svg" xmlns:xlink="http://www.w3.org/1999/xlink" version="1.1" x="0px" y="0px" viewBox="0 0 100 100" enable-background="new 0 0 100 100" xml:space="preserve">
	<path id="0" d="M50.1,24.3V0.2h-3.2v24.4l3.1-0.3C50,24.3,50,24.3,50.1,24.3z"></path>
	<path id="1" d="M60.4,23.5l-1.2-3c-2.4,1-4.2,2.2-5.4,3.2c0.6,0.8,1.1,1.8,1.4,3C56.2,25.9,58,24.5,60.4,23.5z"></path>
	<path id="2" d="M52.3,26.3c0.1,0.6-0.2,1.2-0.5,1.6l1.9-0.2c0.4,0,0.8,0.1,1.1,0.2c-0.3-2.3-1.3-3.8-2.3-4.6c-0.8-0.6-1.5-0.9-1.9-1v2.1 C51.5,24.6,52.2,25.4,52.3,26.3z"></path>
	<path id="3" d="M45.8,28.5c0,0,0.1,0,0.1,0l4.3-0.4c0.9-0.1,1.5-0.9,1.5-1.7c-0.1-0.9-0.9-1.5-1.7-1.5l-4.3,0.4c-0.9,0.1-1.5,0.9-1.5,1.7 C44.3,27.9,45,28.5,45.8,28.5z"></path>
	<path id="4" d="M53.8,28.3l-8.1,0.7c-0.9,0.1-1.5,0.9-1.5,1.7c0.1,0.8,0.8,1.5,1.6,1.5c0,0,0.1,0,0.1,0l8.1-0.7c0.9-0.1,1.5-0.9,1.5-1.7 C55.4,28.9,54.7,28.3,53.8,28.3z"></path>
	<path id="5" d="M53.8,32.1l-8.1,0.7c-0.9,0.1-1.5,0.9-1.5,1.7c0.1,0.8,0.8,1.5,1.6,1.5c0,0,0.1,0,0.1,0l8.1-0.7c0.9-0.1,1.5-0.9,1.5-1.7 C55.4,32.7,54.7,32,53.8,32.1z"></path>
	<path id="6" d="M53.8,35.9l-8.1,0.7c-0.9,0.1-1.5,0.9-1.5,1.7c0.1,0.8,0.8,1.5,1.6,1.5c0,0,0.1,0,0.1,0l8.1-0.7c0.9-0.1,1.5-0.9,1.5-1.7 C55.4,36.4,54.7,35.8,53.8,35.9z"></path>
	<path id="7" d="M53.8,39.6l-8.1,0.7c-0.9,0.1-1.5,0.9-1.5,1.7c0.1,0.8,0.8,1.5,1.6,1.5c0,0,0.1,0,0.1,0l8.1-0.7c0.9-0.1,1.5-0.9,1.5-1.7 C55.4,40.2,54.7,39.5,53.8,39.6z"></path>
	<path id="8" d="M53.8,43.4l-8.1,0.7c-0.9,0.1-1.5,0.9-1.5,1.7c0.1,0.8,0.8,1.5,1.6,1.5c0,0,0.1,0,0.1,0l8.1-0.7c0.9-0.1,1.5-0.9,1.5-1.7 C55.4,43.9,54.7,43.3,53.8,43.4z"></path>
	<path id="9" d="M53.8,47.1l-8.1,0.7c-0.9,0.1-1.5,0.9-1.5,1.7c0.1,0.8,0.8,1.5,1.6,1.5c0,0,0.1,0,0.1,0l8.1-0.7c0.9-0.1,1.5-0.9,1.5-1.7 C55.4,47.7,54.7,47,53.8,47.1z"></path>
	<path id="10" d="M50.5,54.2c-10.3,11.9-16,18-16,26.5c0,8.5,6.9,15.5,15.5,15.5c8.5,0,15.5-6.9,15.5-15.5C65.5,72.2,60.8,66,50.5,54.2z M52.3,51c10.8,12.4,16.8,19.7,16.8,29.7c0,10.5-8.6,19.1-19.1,19.1c-10.5,0-19.1-8.6-19.1-19.1c0-9.9,6.5-16.9,17.3-29.3L52.3,51z"></path>
</svg>