<svg xmlns="http://www.w3.org/2000/svg" version="1.1" viewBox="0 0 15.88 20.84" height="78.75" width="60">
  <g transform="translate(-1.5799502,-278.08202)">
    <g transform="scale(0.9612559,1.0403057)">
      <path d="m3.57 285.62v-18.31h6.17q3.09 0 4.47 1.41 1.39 1.39 1.39 3.48 0 2.69-2.38 3.77 1.46 0.5 2.22 1.67 0.78 1.18 0.78 2.62 0 2.2-1.49 3.79-1.46 1.57-4.6 1.57zm3.11-10.91h2.64q1.57 0 2.35-0.6 0.81-0.63 0.81-1.7 0-2.22-2.67-2.22h-3.14zm0 8.03h3.66q1.49 0 2.12-0.71 0.65-0.73 0.65-1.75 0-2.72-3.53-2.72H6.68Z"/>
    </g>
  </g>
</svg>