<svg xmlns="http://www.w3.org/2000/svg" version="1.1" viewBox="0 0 15.88 20.84" height="78.75" width="60">
	<g transform="matrix(0.99833665,0,0,1.0004273,-1.5632668,-278.2206)">
		<g transform="scale(0.9528629,1.0494689)">
			<path d="m10.7 283.13q-1.48 0-2.69-0.53-1.18-0.53-1.99-1.38-0.78-0.88-1.31-2.06-0.53-1.21-0.75-2.46-0.23-1.28-0.23-2.64 0-1.66 0.38-3.19 0.4-1.56 1.21-2.89 0.8-1.36 2.19-2.16 1.38-0.83 3.19-0.83 2.06 0 3.44 1.06 1.38 1.06 2.01 2.61l-2.66 1.28q-0.55-1.06-1.21-1.58-0.63-0.53-1.58-0.53-1.36 0-2.26 1.01-0.91 1.01-1.26 2.36-0.35 1.33-0.35 2.87 0 2.49 1.01 4.37 1.01 1.86 2.87 1.86 1.76 0 2.82-2.26l2.72 1.03q-1.66 4.07-5.53 4.07z"/>
		</g>
	</g>
</svg>