<svg xmlns="http://www.w3.org/2000/svg" version="1.1" viewBox="0 0 15.88 20.84" height="78.75" width="60">
  <g transform="translate(-1.5799502,-278.08202)">
    <g transform="scale(0.96802984,1.033026)">
      <path d="m3.27 287.63v-18.44h4.64q1.79 0 3.24 0.53 1.45 0.53 2.4 1.4 0.97 0.87 1.61 2.08 0.66 1.19 0.95 2.5 0.29 1.29 0.29 2.71 0 1.32-0.26 2.58-0.26 1.26-0.9 2.5-0.63 1.21-1.61 2.13-0.95 0.9-2.45 1.45-1.5 0.55-3.37 0.55zm3.13-2.95h1.71q1.34 0 2.34-0.55 1.03-0.55 1.58-1.48 0.55-0.95 0.82-2 0.26-1.08 0.26-2.24 0-2.58-1.19-4.43-1.19-1.84-3.53-1.84H6.41Z"/>
    </g>
  </g>
</svg>