<svg xmlns="http://www.w3.org/2000/svg" version="1.1" viewBox="0 0 15.88 20.84" height="78.75" width="60">
  <g transform="translate(-1.5799502,-278.08202)">
    <g transform="scale(0.9737888,1.0269167)">
      <path d="m10.32 289.34q-2.33 0-3.97-1.36-1.64-1.38-2.38-3.41-0.72-2.05-0.72-4.51 0-2.33 0.74-4.38 0.77-2.08 2.41-3.48 1.67-1.41 3.92-1.41 2.08 0 3.33 0.97 1.28 0.97 2.2 2.64l-2.69 1.54q-1.2-2.25-2.84-2.25-1.36 0-2.28 1.05-0.9 1.02-1.26 2.41-0.36 1.36-0.36 2.92 0 2.64 1 4.51 1 1.87 2.9 1.87 1.38 0 2.1-0.92 0.74-0.92 0.74-2.41v-0.38h-3.13v-2.87h6.25v2.49q0 3.31-1.67 5.15-1.67 1.84-4.3 1.84z"/>
    </g>
  </g>
</svg>