<svg xmlns="http://www.w3.org/2000/svg" version="1.1" viewBox="0 0 15.88 20.84" height="78.75" width="60">
  <g transform="translate(-1.5799502,-278.08202)">
    <g transform="scale(0.95340272,1.0488747)">
      <path d="m9.97 283.29q-2.26 0-3.81-1.3-1.53-1.33-2.18-3.31-0.65-1.98-0.65-4.47 0-2.48 0.65-4.47 0.65-1.98 2.18-3.29 1.56-1.33 3.81-1.33 1.38 0 2.51 0.5 1.13 0.48 1.88 1.33 0.78 0.85 1.28 2.03 0.53 1.15 0.75 2.46 0.25 1.3 0.25 2.76 0 1.46-0.25 2.76-0.23 1.3-0.75 2.48-0.5 1.15-1.28 2.01-0.75 0.85-1.88 1.35-1.13 0.48-2.51 0.48zm0-2.83q1.18 0 2.01-0.93 0.83-0.93 1.18-2.28 0.38-1.38 0.38-3.04 0-2.71-0.9-4.47-0.88-1.78-2.66-1.78-1.76 0-2.66 1.83-0.9 1.81-0.9 4.42 0 2.68 0.88 4.47 0.9 1.78 2.68 1.78z"/>
    </g>
  </g>
</svg>