<svg xmlns="http://www.w3.org/2000/svg" version="1.1" viewBox="0 0 15.88 20.84" height="78.75" width="60">
  <g transform="translate(-1.5799502,-276.29608)">
    <g transform="scale(0.95287588,1.0494546)">
      <path d="m16.65 272.36q0 4.97-2.46 7.43l1.25 1.88-2.18 1.46-1.33-1.98q-0.85 0.3-1.96 0.3-2.26 0-3.82-1.31-1.53-1.33-2.18-3.31-0.65-1.98-0.65-4.47 0-2.48 0.65-4.47 0.65-1.98 2.18-3.29 1.56-1.33 3.82-1.33 1.38 0 2.51 0.5 1.13 0.48 1.88 1.33 0.78 0.85 1.28 2.03 0.53 1.15 0.75 2.46 0.25 1.31 0.25 2.76zm-6.68 6.25h0.25l-1.23-1.83 2.23-1.46 1.2 1.81q1.1-1.76 1.1-4.77 0-2.71-0.9-4.47-0.88-1.78-2.66-1.78-1.76 0-2.66 1.83-0.9 1.81-0.9 4.42 0 2.69 0.88 4.47 0.9 1.78 2.69 1.78z"/>
    </g>
  </g>
</svg>