<svg xmlns="http://www.w3.org/2000/svg" version="1.1" viewBox="0 0 15.88 20.84" height="78.75" width="60">
  <g transform="scale(0.99124139,1.008836)">
    <path d="m8.23 18.88q-2.22 0-3.99-1.28-1.77-1.28-2.5-3.42l2.82-1.04q0.6 1.28 1.64 2.06 1.07 0.76 2.3 0.76 1.2 0 1.93-0.63 0.73-0.63 0.73-1.8 0-0.99-0.99-1.75Q9.17 11.01 7.39 10.22 6.27 9.73 5.6 9.36 4.92 9 4.06 8.35 3.22 7.69 2.8 6.81 2.39 5.92 2.39 4.83 2.39 2.79 3.93 1.41 5.49 0 8.02 0q2.01 0 3.49 1.1 1.51 1.1 2.01 2.79L10.73 4.83Q9.79 2.92 7.84 2.92q-1.02 0-1.67 0.52-0.65 0.52-0.65 1.43 0 0.21 0.05 0.42 0.05 0.18 0.18 0.37 0.13 0.16 0.23 0.31 0.13 0.13 0.37 0.31 0.26 0.16 0.42 0.26 0.18 0.1 0.52 0.29 0.34 0.16 0.52 0.23 0.18 0.08 0.6 0.29 0.42 0.18 0.6 0.26 1.1 0.5 1.83 0.94 0.73 0.42 1.62 1.12 0.89 0.7 1.36 1.67 0.47 0.97 0.47 2.11 0 2.5-1.77 3.96-1.75 1.46-4.28 1.46z"/>
  </g>
</svg>